<?xml version="1.0" encoding="utf-8"?>
<!-- Generator: Adobe Illustrator 26.0.2, SVG Export Plug-In . SVG Version: 6.00 Build 0)  -->
<svg version="1.1" xmlns="http://www.w3.org/2000/svg" xmlns:xlink="http://www.w3.org/1999/xlink" x="0px" y="0px"
	 viewBox="0 0 433.85 319.29" style="enable-background:new 0 0 433.85 319.29;" xml:space="preserve">
<style type="text/css">
	.st0{display:none;}
	.st1{fill:#C2DB6C;}
	.st2{fill:#0052A4;}
	.st3{fill:#18BDDA;}
	.st4{fill:#1F361A;}
	.st5{fill:#A1CF6F;}
	.st6{fill:#008D3B;}
	.st7{fill:#519F45;}
	.st8{fill:#142113;}
	.st9{fill:#E2E3E3;}
	.st10{fill:#FFFFFF;}
	.st11{fill:#5EA043;}
	.st12{fill:#010101;}
	.st13{fill:#DFF3FD;}
	.st14{fill:#923660;}
	.st15{fill:#B04D7B;}
	.st16{fill:#801D1E;}
	.st17{fill:#F495BA;}
	.st18{fill:#414141;}
	.st19{fill:#2E2B2B;}
</style>
<g id="Õ_x2021_Ô_xF8FF__x2021__x201A_Î_x2C7__x2DB__x2D8_ËÂ_x5F__x2030_Î_x2C7__x5F_ÏÓÌÚ_x2021_ÊÌÓÈ_x5F_Ó·Î_x2021_ÒÚË" class="st0">
</g>
<g id="_x2014_ÎÓÈ_x5F_1">
	<path class="st1" d="M395.17,83.64c0.17-0.37,0.35-0.75,0.69-0.98c0.24,0.47,0.54,0.91,0.89,1.31
		C396.21,83.87,395.69,83.76,395.17,83.64z"/>
	<path class="st1" d="M303.6,131.92c0.66,0.89,0.35,2.15-0.04,3.1c-0.08-0.03-0.23-0.1-0.31-0.13
		C303.38,133.9,303.48,132.91,303.6,131.92z"/>
	<path class="st2" d="M354.59,267.9c5.01-0.18,10.02-0.11,15.03-0.08c1.95-0.03,3.9,0.2,5.85,0.19c5.14,0.12,10.28,0.49,15.42,0.93
		c4.15,0.44,8.31,0.89,12.43,1.83c1.71,0.48,3.49,0.73,5.05,1.96c0.28,0.16,0.55,0.75,0.27,1.13c-0.6,0.91-1.5,1.11-2.29,1.46
		c-3.85,1.31-7.79,1.78-11.72,2.31c-7.68,0.85-15.37,1.34-23.06,1.43c-4.38,0.23-8.76,0.13-13.13,0.13
		c-2.78-0.18-5.56-0.16-8.34-0.23c-4.38-0.25-8.76-0.45-13.13-0.85c-4.78-0.48-9.57-0.99-14.31-2.16c-1.32-0.4-2.68-0.69-3.9-1.59
		c-0.31-0.22-0.66-0.89-0.3-1.31c0.74-1,1.78-1.2,2.71-1.56c4.91-1.51,9.94-1.98,14.93-2.53
		C342.26,268.36,348.43,268.09,354.59,267.9z"/>
	<path class="st2" d="M76.81,300.75c5.01-0.15,10.02-0.1,15.03-0.07c1.95-0.02,3.9,0.17,5.85,0.16c5.14,0.1,10.28,0.41,15.42,0.79
		c4.15,0.37,8.31,0.75,12.43,1.55c1.71,0.4,3.49,0.62,5.05,1.66c0.28,0.13,0.55,0.64,0.27,0.96c-0.6,0.77-1.5,0.94-2.29,1.23
		c-3.85,1.1-7.79,1.5-11.72,1.95c-7.68,0.72-15.37,1.13-23.06,1.2c-4.38,0.2-8.76,0.11-13.13,0.11c-2.78-0.15-5.56-0.14-8.34-0.2
		c-4.38-0.21-8.76-0.38-13.13-0.72c-4.78-0.4-9.57-0.83-14.31-1.83c-1.32-0.34-2.68-0.58-3.9-1.35c-0.31-0.19-0.66-0.75-0.3-1.11
		c0.74-0.84,1.78-1.01,2.71-1.32c4.91-1.28,9.94-1.67,14.93-2.14C64.48,301.14,70.65,300.91,76.81,300.75z"/>
	<path class="st2" d="M109.27,277.23c5.31-0.6,10.65-0.8,15.99-0.81c0.8-0.01,1.6-0.04,2.39,0.04c0.27,1.45,0.63,2.9,1.16,4.28
		c-4.49,0.13-9-0.01-13.49-0.23c-2.53-0.17-5.06-0.35-7.56-0.74c-1.11-0.23-2.33-0.29-3.29-0.95c-0.32-0.24,0.09-0.56,0.32-0.64
		C106.2,277.58,107.76,277.46,109.27,277.23z"/>
	<path class="st3" d="M151.02,280.87c20.43-1.98,40.95-2.74,61.46-3.12c11.95-0.12,23.89-0.11,35.84,0.02
		c3.31,0.18,6.62,0.06,9.93,0.25c6.93,0.14,13.85,0.44,20.77,0.76c1.11-0.02,2.23,0.24,3.34,0.07c0.69,2.43,2.01,4.67,3.81,6.45
		c2.03,2.09,4.76,3.75,7.74,3.77c2.92,0.19,5.66-1.32,7.73-3.26c1.63-1.44,2.78-3.35,3.51-5.39c0.23,0.08,0.46,0.19,0.71,0.24
		c5.92,0.56,11.83,1.26,17.69,2.21c2.07,0.38,4.15,0.73,6.2,1.23c1.97,0.47,3.95,0.98,5.8,1.82c0.83,0.42,1.76,0.87,2.18,1.75
		c0.24,0.83-0.51,1.46-1.13,1.87c-1.58,0.95-3.37,1.46-5.13,1.96c-4.59,1.21-9.29,1.91-13.98,2.57
		c-10.09,1.31-20.23,2.11-30.38,2.74c-8.84,0.53-17.7,0.9-26.55,1.15c-2.07-0.01-4.14,0.18-6.21,0.17
		c-3.55,0.01-7.1,0.19-10.66,0.18c-10.88,0.1-21.76,0.08-32.63-0.04c-3.25-0.18-6.52-0.05-9.77-0.26c-1.86-0.06-3.71-0.02-5.57-0.14
		c-14.49-0.46-28.97-1.21-43.4-2.6c-7.07-0.73-14.15-1.53-21.11-2.97c-2.63-0.59-5.32-1.16-7.75-2.37
		c-0.73-0.42-1.71-0.82-1.86-1.75c-0.13-0.84,0.64-1.4,1.27-1.77c1.99-1.12,4.23-1.71,6.44-2.24c0.44-0.13,0.99-0.12,1.28-0.54
		c1.35,1.95,3.25,3.53,5.38,4.57c2.9,1.41,6.47,1.08,9.16-0.63C147.68,285.98,149.79,283.62,151.02,280.87z"/>
	<path class="st3" d="M360.57,289.69c3.93-0.19,7.91-0.05,11.79,0.7c1.05,0.2,2.09,0.51,3.06,0.97c0.45,0.22,0.94,0.55,1.03,1.09
		c-0.09,0.54-0.58,0.87-1.03,1.1c-1.49,0.73-3.14,1.02-4.77,1.27c-4.72,0.64-9.52,0.64-14.24,0c-1.62-0.27-3.28-0.55-4.77-1.28
		c-0.45-0.22-0.94-0.56-1.02-1.09c0.16-0.77,0.98-1.08,1.63-1.35C354.9,290.1,357.77,289.89,360.57,289.69z"/>
	<path class="st3" d="M20.15,288.22c6.02-0.3,12.1-0.08,18.03,1.07c1.61,0.3,3.2,0.78,4.69,1.49c0.69,0.33,1.44,0.84,1.58,1.67
		c-0.13,0.83-0.88,1.33-1.58,1.68c-2.28,1.11-4.81,1.56-7.29,1.95c-7.22,0.97-14.57,0.97-21.79,0c-2.48-0.42-5.02-0.84-7.3-1.95
		c-0.69-0.34-1.43-0.85-1.57-1.67c0.25-1.18,1.49-1.66,2.49-2.07C11.48,288.86,15.86,288.53,20.15,288.22z"/>
	<path class="st3" d="M89.47,284.79c3.93-0.19,7.91-0.05,11.79,0.7c1.05,0.2,2.09,0.51,3.06,0.97c0.45,0.22,0.94,0.55,1.03,1.09
		c-0.09,0.54-0.58,0.87-1.03,1.1c-1.49,0.73-3.14,1.02-4.77,1.27c-4.72,0.64-9.52,0.64-14.24,0c-1.62-0.27-3.28-0.55-4.77-1.28
		c-0.45-0.22-0.94-0.56-1.02-1.09c0.16-0.77,0.98-1.08,1.63-1.35C83.8,285.21,86.66,284.99,89.47,284.79z"/>
	<path class="st4" d="M156.65,5.18c1.54-0.14,3.08-0.05,4.63-0.06c3.71,0,7.41,0.01,11.12-0.01c1.86,0.01,3.72,0.01,5.59,0
		c3.88,0.01,7.76,0,11.64,0c2.27,0,4.54,0,6.81,0c3.59,0,7.18,0.01,10.77,0c2.45,0,4.9,0,7.35,0c3.3,0.01,6.59,0,9.89,0
		c2.68,0,5.36,0,8.04,0c3.28,0,6.57,0.01,9.85,0c2.68,0,5.37,0,8.05,0c3.18,0.01,6.36,0,9.53,0c2.73,0,5.47,0,8.2,0
		c3.28,0.06,6.57-0.12,9.85,0.12c2.75,0.17,5.51,0.52,8.18,1.24c0.81,0.25,1.61,0.51,2.41,0.78c1.41,0.77,2.17,2.28,2.86,3.66
		c1.04,2.37,1.79,4.86,2.29,7.39c0.13,0.64,0.24,1.28,0.37,1.92c0.65,0.11,1.32,0.18,1.97,0.31c0.96,0.19,1.91,0.42,2.86,0.7
		c0.71,0.21,1.49,0.31,2.12,0.73c1.01,0.65,1.72,1.64,2.37,2.63c0.73,1.23,1.32,2.54,1.83,3.87c1.01,2.69,1.73,5.5,2.01,8.37
		c0.04,0.36,0.08,0.72,0.12,1.08c-1-0.06-2-0.12-2.99-0.17c-0.66-2.02-0.94-4.13-1.55-6.16c-0.37-1.31-0.76-2.63-1.33-3.87
		c-0.57-1.33-1.32-2.64-2.45-3.58c-0.91-0.75-2.15-0.76-3.23-1.06c-1.3-0.35-2.64-0.49-3.98-0.64c-2.17-0.19-4.34-0.39-6.52-0.51
		c-7.63-0.01-15.26,0-22.89,0c-1.96,0.02-3.91-0.08-5.86,0.11c-35.49,0.04-70.97,0.04-106.46,0c-4.13-0.11-8.26,0.23-12.33,0.9
		c-0.81,0.13-1.59,0.39-2.39,0.5c-2.14,0.32-3.63,2.13-4.7,3.86c-1.98,3.19-2.58,6.96-3.23,10.6c-1.12,0.07-2.23,0.17-3.34,0.27
		c0.43-2.97,1.22-5.88,2.39-8.64c0.95-2.24,2-4.48,3.61-6.33c0.62-0.7,1.36-1.34,2.26-1.61c1.54-0.39,3.06-0.87,4.63-1.11
		c0.88-0.13,1.76-0.28,2.64-0.4c0.8-3.41,1.89-6.78,3.56-9.86c0.8-1.32,1.74-2.85,3.37-3.18C149.79,5.84,153.24,5.45,156.65,5.18z
		 M156.28,7.75c-1.12,0.18-2.26,0.08-3.36,0.37c-1.58,0.13-3.1,0.58-4.63,0.96c-1.19,0.31-2.05,1.27-2.76,2.22
		c-1.72,2.52-2.6,5.51-3.09,8.5c0.65-0.03,1.29-0.07,1.94-0.12c1.31-0.07,2.62-0.16,3.93-0.17c45.67,0.01,91.34-0.01,137.01,0.01
		c1.94,0.13,3.9,0.2,5.84,0.41c-0.51-2.46-0.94-4.99-1.99-7.29c-0.31-0.98-0.88-1.87-1.51-2.67c-0.51-0.64-1.28-0.99-2.07-1.11
		c-1.07-0.28-2.12-0.66-3.24-0.73c-2.31-0.37-4.65-0.62-6.99-0.59c-21.64,0.01-43.28,0.02-64.92,0.02
		c-5.91,0.03-11.83-0.06-17.74,0.06c-4.02,0-8.05,0-12.07,0c-5.26-0.12-10.53-0.03-15.8-0.06C161.97,7.57,159.12,7.39,156.28,7.75z"
		/>
	<path class="st5" d="M156.28,7.75c2.83-0.35,5.69-0.18,8.54-0.22c5.26,0.02,10.53-0.06,15.8,0.06c4.02,0,8.05,0,12.07,0
		c5.91-0.12,11.83-0.03,17.74-0.06c21.64,0.01,43.28,0,64.92-0.02c2.35-0.02,4.68,0.22,6.99,0.59c1.11,0.07,2.16,0.45,3.24,0.73
		c0.79,0.12,1.57,0.47,2.07,1.11c0.63,0.8,1.21,1.69,1.51,2.67c-0.66-0.85-1.13-1.97-2.22-2.34c-1.63-0.46-3.26-0.94-4.95-1.08
		c-2.09-0.23-4.18-0.52-6.28-0.51c-4.61,0.01-9.22-0.01-13.84-0.01c-1.71-0.04-3.43,0.11-5.14,0.07
		c-31.76,0.01-63.53,0.02-95.29-0.02c-1.52-0.03-3.04,0.14-4.55,0.28c-2.39,0.18-4.77,0.61-7.08,1.25
		c-1.47,0.46-2.41,1.79-3.18,3.04c-1.14,1.96-1.82,4.16-2.25,6.38c-0.65,0.05-1.29,0.1-1.94,0.12c0.49-2.98,1.37-5.97,3.09-8.5
		c0.71-0.95,1.57-1.91,2.76-2.22c1.53-0.38,3.05-0.83,4.63-0.96C154.02,7.83,155.17,7.93,156.28,7.75z"/>
	<path class="st5" d="M135.36,23.4c0.81-0.12,1.59-0.37,2.39-0.5c-1.5,1.28-2.79,2.81-3.76,4.54c-1.8,3.14-2.77,6.68-3.25,10.25
		c-1.11,0.05-2.21,0.11-3.32,0.18c0.64-3.64,1.24-7.41,3.23-10.6C131.74,25.53,133.23,23.72,135.36,23.4z"/>
	<path class="st6" d="M156.89,8.99c1.51-0.14,3.03-0.31,4.55-0.28c31.76,0.04,63.53,0.03,95.29,0.02c1.71,0.04,3.43-0.11,5.14-0.07
		c4.61,0,9.22,0.02,13.84,0.01c2.1,0,4.19,0.28,6.28,0.51c0.05,0.72,0.43,1.34,0.67,2.01c1.04,2.6,1.6,5.37,1.98,8.14
		c0.22,0.06,0.45,0.11,0.68,0.16c-45.67-0.02-91.34,0-137.01-0.01c-1.31,0.01-2.62,0.1-3.93,0.17c0.44-2.22,1.11-4.42,2.25-6.38
		c0.77-1.25,1.71-2.58,3.18-3.04C152.13,9.6,154.5,9.17,156.89,8.99z"/>
	<path class="st6" d="M256.55,22c1.95-0.19,3.91-0.09,5.86-0.11c7.63,0,15.26-0.01,22.89,0c2.18,0.12,4.35,0.32,6.52,0.51
		c1.37,2.47,2.54,5.07,3.25,7.81c0.68,2.38,0.99,4.85,1.22,7.32c-52.93,0-105.86,0-158.79,0c-2.25-0.02-4.5,0.03-6.74,0.15
		c0.48-3.57,1.45-7.11,3.25-10.25c0.97-1.72,2.26-3.25,3.76-4.54c4.07-0.67,8.2-1,12.33-0.9C185.57,22.03,221.06,22.04,256.55,22z"
		/>
	<path class="st6" d="M282.67,11.19c-0.24-0.66-0.62-1.29-0.67-2.01c1.69,0.15,3.33,0.62,4.95,1.08c1.09,0.37,1.57,1.5,2.22,2.34
		c1.05,2.3,1.48,4.83,1.99,7.29c-1.94-0.21-3.9-0.28-5.84-0.41c-0.23-0.05-0.46-0.11-0.68-0.16
		C284.27,16.57,283.71,13.8,282.67,11.19z"/>
	<path class="st7" d="M291.81,22.41c1.33,0.15,2.67,0.29,3.98,0.64c1.09,0.3,2.32,0.31,3.23,1.06c1.13,0.93,1.88,2.24,2.45,3.58
		c0.57,1.24,0.97,2.55,1.33,3.87c0.61,2.03,0.89,4.15,1.55,6.16c-2.69-0.14-5.38-0.21-8.07-0.18c-0.23-2.46-0.54-4.93-1.22-7.32
		C294.35,27.47,293.19,24.88,291.81,22.41z"/>
	<path class="st4" d="M130.75,37.69c2.24-0.12,4.49-0.18,6.74-0.15c52.93,0,105.86,0,158.79,0c2.69-0.03,5.38,0.04,8.07,0.18
		c1,0.06,1.99,0.11,2.99,0.17c1.93,0.14,3.86,0.31,5.78,0.57c1.77,0.21,3.52,0.6,5.27,0.92c1.33,0.29,2.42,1.22,3.28,2.24
		c0.86,1.11,1.48,2.39,1.91,3.72c0.69,2.32,1.05,4.8,0.64,7.22c-0.12,1.62-0.2,3.25-0.61,4.83c-0.31,1.3-0.84,2.54-1.48,3.71
		c-0.14,0.25-0.29,0.5-0.44,0.75c-0.66,0.94-1.52,1.79-2.64,2.15c-1.81,0.64-3.72,0.89-5.61,1.17c-1.12,0.16-2.24,0.28-3.36,0.39
		c-0.04,1.61,0.09,3.23-0.11,4.84c-0.2,2.52-0.47,5.03-0.68,7.55c-0.29,3.01-0.58,6.01-0.87,9.02c-0.25,2.39-0.47,4.78-0.74,7.16
		c-0.31,3.66-0.76,7.31-1.11,10.97c-0.22,1.82-0.38,3.64-0.58,5.46c-0.27,2.48-0.57,4.96-0.8,7.44c2.91-0.91,5.78-1.96,8.63-3.06
		c1.96-0.76,3.92-1.56,5.84-2.41c1.14-0.49,2.27-0.99,3.4-1.51c2.63-1.29,5.3-2.47,7.86-3.89c2.17-1.19,4.44-2.16,6.59-3.38
		c1.07-0.57,2.16-1.1,3.25-1.64c2.6-1.33,5.06-2.9,7.44-4.59c1.39-0.9,2.74-1.86,4.1-2.81c1.49-1.12,3-2.21,4.46-3.36
		c1.58-1.19,3.06-2.49,4.54-3.79c-0.18-0.72-0.34-1.44-0.54-2.15c-0.59-1.83-1.19-3.76-0.76-5.69c0.22-1.8,0.82-3.53,1.6-5.15
		c0.73-1.79,1.75-3.45,2.65-5.16c-0.21-0.45-0.65-0.78-1-1.13c-1.34-1.28-2.87-2.33-4.3-3.5c-0.91-0.8-1.91-1.53-2.56-2.56
		c-0.51-0.79-0.94-1.66-1.08-2.6c-0.29-1.61-0.16-3.26,0.17-4.85c0.48-1.98,1.35-3.89,2.69-5.44c0.2-0.27,0.48-0.47,0.78-0.62
		c1.68-0.93,3.62-1.32,5.53-1.26c0.7,0.01,1.37,0.28,2.08,0.32c1.36,0.34,2.69,0.88,3.84,1.7c1.51,0.92,2.4,2.5,3.35,3.93
		c0.89,1.54,1.89,3.08,2.14,4.88c0.28,2.75-0.24,5.51-0.09,8.26c0.59,0.05,1.19,0.04,1.79,0.09c0.68,0.07,1.37,0.12,2.06,0.15
		c0.77-0.81,1.42-1.73,2.11-2.61c3.96-5.33,7.43-11.08,12.27-15.69c2.43-2.14,5.02-4.42,8.3-5.03c0.98-0.02,1.99-0.1,2.93,0.21
		c1.23,0.59,2.38,1.5,2.94,2.77c0.86,1.81,0.61,3.9,0.2,5.79c-0.38,1.22-0.84,2.41-1.36,3.58c-1.67,3.15-4.18,5.75-6.85,8.06
		c-2.13,2.16-4.64,4-6.39,6.5c1.04,0.03,2.11-0.03,3.11-0.39c5.32-1.85,10.97-2.27,16.51-3c1.64-0.14,3.31-0.55,4.95-0.15
		c1.36,0.2,2.59,0.85,3.75,1.56c1.18,0.65,2.39,1.53,2.77,2.89c0.4,1.44,0.42,3.11-0.44,4.4c-0.75,1.16-1.54,2.35-2.7,3.14
		c-1.78,1.39-3.91,2.25-6.06,2.9c-0.47,0.13-0.93,0.29-1.4,0.4c-3.35,0.89-6.86,0.83-10.29,0.62c-1.54-0.05-3.06-0.32-4.57-0.57
		c-1.21-0.17-2.45-0.03-3.56,0.5c-0.34,0.24-0.53,0.62-0.69,0.98c0.52,0.12,1.05,0.23,1.58,0.32c0.45,0.08,0.9,0.16,1.36,0.24
		c4.22,0.89,8.63,1.73,12.28,4.17c0.87,0.52,1.64,1.23,2.2,2.09c1.1,2.24,2.33,4.6,2.17,7.18c-0.06,1.85-1.2,3.51-2.68,4.54
		c-0.81,0.61-1.82,0.79-2.78,1.05c-1.63,0.35-3.31,0.21-4.95,0.1c-2.32-0.32-4.7-0.99-6.5-2.56c-1.11-0.89-2.06-1.96-3.14-2.88
		c-1.49-1.52-3.06-2.95-4.51-4.51c-1.23,1.49-2.91,2.5-4.57,3.45c-1.16,0.62-2.43,1-3.73,1.22c-1.5,0.16-3.03,0.16-4.52-0.15
		c-2.1-0.32-4.08-1.14-6-2c-3.17,1.34-5.76,3.65-8.44,5.75c-2.08,1.64-4.41,2.93-6.69,4.28c-2.22,1.27-4.49,2.45-6.73,3.67
		c-1.63,0.85-3.23,1.74-4.86,2.6c-1.65,0.86-3.23,1.84-4.94,2.57c-5.9,2.67-11.8,5.4-17.89,7.63c-3.03,0.91-6.01,1.97-9.04,2.86
		c-2.51,0.72-5.05,1.36-7.59,2.02c-0.37,0.09-0.73,0.16-1.1,0.24c-0.22,1.47-0.34,2.94-0.52,4.41c-0.12,0.99-0.23,1.98-0.35,2.97
		c-0.43,3.75-0.87,7.51-1.32,11.26c-0.34,2.71-0.63,5.43-0.98,8.15c-0.34,2.81-0.67,5.63-1.03,8.44c-0.34,2.84-0.7,5.69-1.05,8.53
		c-0.32,2.65-0.66,5.29-0.99,7.94c-0.45,3.61-0.9,7.22-1.35,10.83c-0.14,1.06-0.27,2.12-0.41,3.19
		c-1.47,11.85-2.99,23.69-4.42,35.54c-0.2,1.55-0.4,3.09-0.58,4.64c-0.23,2.09-0.56,4.16-0.72,6.26c-0.53,3.51-0.85,7.06-1.32,10.58
		c-0.46,3.14-1.25,6.22-2.39,9.18c-0.85,2.22-1.93,4.34-3.17,6.37c-0.69,1.05-1.45,2.04-2.19,3.06c-1.57,1.73-3.24,3.41-5.26,4.61
		c-1.72,1.04-3.66,1.8-5.68,1.91c-7.87,0.04-15.73-0.06-23.59-0.14c-7.63-0.05-15.26-0.13-22.89-0.2
		c-7.16-0.15-14.32,0.02-21.48,0.08c-12.48,0.07-24.95,0.28-37.43,0.27c-2.62,0.1-5.16-0.97-7.29-2.42
		c-2.15-1.45-3.92-3.39-5.49-5.43c-0.8-1.16-1.55-2.35-2.27-3.55c-0.48-1.03-1.03-2.03-1.48-3.07c-0.65-1.48-1.16-3.01-1.68-4.53
		c-0.34-1.39-0.73-2.78-0.99-4.19c-0.49-2.51-0.65-5.07-1.04-7.59c-0.35-3.44-0.81-6.88-1.22-10.32c-0.2-1.63-0.39-3.26-0.6-4.89
		c-0.56-4.62-1.13-9.24-1.72-13.85c-1.04,1.24-2.23,2.33-3.21,3.61c-2,2.41-4.2,4.68-6.63,6.66c-1.23,0.9-2.37,1.93-3.73,2.64
		c-1.45,0.8-3.06,1.33-4.7,1.55c-1.35,0.17-2.73-0.34-3.69-1.3c-2.51-2.16-3.77-5.6-3.46-8.88c0.02-0.62,0.14-1.22,0.21-1.82
		c-1.87-0.28-3.76-0.73-5.37-1.77c-0.67-0.37-1.17-0.95-1.76-1.41c-1.23-1.29-2.12-2.9-2.49-4.65c-0.2-1.68-0.26-3.44,0.44-5.02
		c0.54-1.15,1.22-2.26,2.15-3.13c1.31-1.34,2.95-2.29,4.6-3.17c-1.59-0.96-3.26-1.84-4.65-3.1c-1.16-1.05-2.29-2.2-2.88-3.67
		c-0.43-1.08-0.61-2.28-0.4-3.43c1.07-3.85,4.66-6.84,8.64-7.23c1.84-0.14,3.72,0.05,5.45,0.69c2.48,0.97,4.24,3.05,6.34,4.6
		c0.39-1.87,1.34-3.56,2.23-5.23c-1.82-0.84-3.68-1.61-5.34-2.73c-1.58-0.95-3.13-1.96-4.81-2.72c-0.94-0.39-1.84-0.83-2.75-1.28
		c-1.53-0.77-3.24-1.16-4.7-2.08c-0.9-0.57-1.99-0.78-2.84-1.44c-2.98-1.98-5.7-4.34-8.13-6.97c-1.04-1.23-2.2-2.45-2.67-4.03
		c-0.51-1.98,0.54-3.89,1.52-5.53c0.51-1.1,1.46-1.87,2.29-2.71c1.14-0.9,2.48-1.5,3.66-2.35c3.27-2.16,6.66-4.14,10.08-6.05
		c2.95-1.8,5.91-3.58,8.9-5.31c1.7-0.94,3.32-2,5.05-2.88c0.74-0.39,1.46-0.83,2.2-1.22c0.19-0.12,0.5-0.24,0.39-0.52
		c-0.17-1.38-0.32-2.75-0.48-4.13c-0.42-3.55-0.81-7.1-1.21-10.66c-0.18-1.7-0.39-3.4-0.55-5.11c-1.59-14.48-3.05-28.97-4.36-43.47
		c-0.17-1.58-0.07-3.17-0.09-4.75c-2.39-0.23-4.79-0.52-7.14-1.03c-1.56-0.28-3.21-0.81-4.21-2.13c-2.02-2.64-2.81-6.01-2.92-9.29
		c-0.29-2.39-0.24-4.85,0.42-7.18c0.6-2.17,1.67-4.34,3.53-5.7c0.8-0.61,1.77-0.92,2.76-1.02c2.37-0.51,4.76-0.88,7.18-1.07
		c1.11-0.1,2.23-0.2,3.34-0.27C128.54,37.79,129.64,37.73,130.75,37.69z M123.5,41.16c-0.82,0.09-1.63,0.22-2.46,0.23l0.03,0.07
		c-0.56,0.06-1.11,0.19-1.66,0.25c-1.72,0.13-3.29,1.11-4.38,2.42c-1.33,1.66-2.13,3.8-2.03,5.94c-0.01,2.25,0.11,4.58,0.98,6.68
		c0.72,1.47,1.63,2.99,3.11,3.8c1.54,0.72,3.25,0.91,4.91,1.1l0,0.05c3.8,0.38,7.6,0.71,11.41,0.84c14.14,0.01,28.27,0,42.41,0
		c4.42-0.03,8.84,0.06,13.26-0.04c-1.22,1.12-2.32,2.38-3.32,3.71l0.09-0.13c-16.18-0.02-32.36,0-48.54-0.01
		c-2.87,0.03-5.74-0.02-8.61-0.17c-0.3,1.99-0.27,4-0.25,6.01c-0.01,0.6-0.02,1.19,0.05,1.79c0.28,2.41,0.54,4.83,0.78,7.24
		c1.11,10.57,2.38,21.12,3.53,31.69c0.5,4.22,1.02,8.43,1.53,12.65c0.6,4.27,1.03,8.56,1.57,12.84c1.53,12.71,3.23,25.4,4.75,38.11
		c1.08,8.71,2.19,17.41,3.24,26.12c1.51,13.12,3.09,26.24,4.46,39.38c0.31,2.41,0.39,4.86,0.83,7.26c0.25,1.49,0.61,2.97,1.03,4.43
		c1.07,3.46,2.46,6.87,4.58,9.83l0,0.09c0.76,1.14,1.65,2.18,2.56,3.19c1.73,2,3.86,3.77,6.42,4.58c2.04,0.71,4.22,0.38,6.34,0.48
		c11.77-0.08,23.55-0.31,35.32-0.51c0.97-0.02,1.94,0.07,2.9-0.07c2.04,0.18,4.09-0.05,6.14,0.02c4.38-0.13,8.76,0.1,13.14,0.02
		c4.37,0.04,8.74,0.13,13.12,0.11c3.67-0.02,7.34,0.12,11.01,0.03c1.65,0.08,3.31,0.03,4.96,0.05c1.96,0.13,3.91-0.11,5.87,0.03
		c1.83,0,3.67,0.05,5.5-0.03c2.93-0.1,5.62-1.59,7.81-3.45c2.33-2.03,4.21-4.54,5.74-7.22c2.66-4.82,4.27-10.21,4.81-15.69
		c1.25-10.59,2.49-21.18,3.84-31.76c1.4-12.38,3.03-24.72,4.46-37.1c1.01-8.61,2.05-17.21,3.07-25.81
		c1.05-8.36,1.92-16.73,2.92-25.09c0.55-4.32,0.98-8.66,1.54-12.99c0.96-8.81,2-17.6,3.04-26.4c0.49-4.38,1.08-8.75,1.51-13.14
		c0.03-2.26,0.17-4.55-0.18-6.79c-4.39,0.35-8.79,0.24-13.19,0.26c-15.48,0-30.95-0.01-46.43,0l0.09,0.14
		c-1-1.56-2.47-2.75-4.04-3.7c16.74,0.05,33.48,0.01,50.21,0.02c4.54-0.03,9.11,0.15,13.62-0.43c2.63-0.07,5.26-0.43,7.85-0.85
		c1.26-0.28,2.57-0.7,3.45-1.7c1.19-1.33,2.07-2.96,2.44-4.71c0.36-1.98,0.4-4.01,0.33-6.02c-0.34-3.07-2.37-6.16-5.47-6.99
		c-2.09-0.32-4.18-0.65-6.29-0.82c-4.17-0.45-8.37-0.59-12.57-0.55c-54.29,0-108.58,0-162.88,0
		C130.34,40.59,126.91,40.74,123.5,41.16z M398.82,48.27c-1.54,0.88-2.92,2.04-4.12,3.35c-4.32,4.84-7.31,10.7-11.58,15.58
		c-0.56,0.69-1.26,1.41-2.19,1.51c-2.79,0.35-5.6-0.02-8.33-0.58c0.08-1.88,0.37-3.74,0.34-5.62c-0.01-1.66,0.12-3.36-0.37-4.97
		c-0.61-2.17-1.93-4.11-3.65-5.55c-0.75-0.64-1.56-1.25-2.52-1.53c-2.7-0.84-6.01,0.57-7.03,3.26c-0.67,1.92-0.84,4.07-0.16,6.01
		c0.4,1.19,1.25,2.15,2.15,2.99c1.53,1.42,3.35,2.55,4.63,4.23c0.64,0.85,1.22,1.88,1.04,2.99c-0.35,3.42-3.2,5.92-3.78,9.27
		c-0.65,3.55,0.58,7.05,0.84,10.57c-4.31,2.36-8.12,5.5-12.07,8.4c-3.7,2.62-7.42,5.26-11.48,7.31c-5.01,2.75-10.04,5.45-15.25,7.81
		c-6.6,3.05-13.45,5.55-20.42,7.63c-0.13,0.89-0.24,1.78-0.32,2.68c-0.07,0.43-0.12,0.87-0.14,1.31c4.32-1.15,8.6-2.44,12.8-3.95
		c6.74-2.39,13.3-5.27,19.73-8.4c2.87-1.39,5.68-2.89,8.57-4.25c3.72-1.86,7.33-3.94,10.86-6.13c2.6-1.63,5.18-3.29,7.56-5.23
		c1.45-1.23,2.79-2.59,4.39-3.62c0.68-0.44,1.46-0.98,2.32-0.67c3.18,0.88,6.22,2.49,9.58,2.6c1.09-0.08,2.15-0.41,3.12-0.91
		c2.37-1.23,4.05-3.38,5.56-5.52c2.19,1.33,4.19,2.94,6.12,4.61c2.27,1.93,4.1,4.37,6.62,5.99c1.67,1.1,3.76,1.25,5.71,1.12
		c1.56-0.07,3.12-0.86,3.91-2.24c0.86-1.42,0.53-3.24-0.13-4.67c-0.84-1.75-2.48-2.92-4.14-3.81c-2.63-1.45-5.56-2.25-8.52-2.68
		c-1.91-0.26-3.74-0.94-5.41-1.89c0-1.4-0.12-2.87,0.38-4.2c0.81-0.78,1.96-1.19,3.07-1.25c4.38-0.52,8.73,0.88,13.12,0.43
		c2.66-0.32,5.39-0.72,7.77-2.03c1.49-0.78,3.07-1.62,4-3.08c0.42-0.75,0.92-1.56,0.75-2.46c-0.17-0.88-0.92-1.5-1.69-1.86
		c-1.81-0.86-3.86-1.41-5.86-1.03c-4.39,0.89-8.9,0.85-13.31,1.61c-3.12,0.54-6.04,1.91-9.19,2.28c-0.67-1.29-1.14-2.68-1.39-4.11
		c1.44-1.85,3.43-3.16,4.93-4.95c2.48-3.18,6.07-5.29,8.41-8.59c1.3-1.86,1.94-4.11,2.17-6.35c0.22-1.21-0.3-2.79-1.63-3.09
		C402.53,46.19,400.53,47.19,398.82,48.27z M129.94,138.03c-1.49,0.7-2.91,1.56-4.38,2.29c-3.1,1.79-6.22,3.57-9.22,5.52
		c-1.23,0.78-2.42,1.63-3.7,2.33c-3.32,1.93-6.46,4.14-9.45,6.55c-0.87,0.71-1.82,1.38-2.43,2.35c-0.74,0.95-0.91,2.39-0.23,3.42
		c1.43,2.5,3.62,4.45,5.89,6.18c1.56,1.17,3.06,2.46,4.8,3.37c1.69,0.88,3.4,1.71,5.12,2.53c1.2,0.44,2.25,1.2,3.42,1.71
		c1.82,0.89,3.78,1.45,5.57,2.42c1.95,0.83,3.78,2.01,5.88,2.42c1.5,0.17,3.01,0.34,4.47,0.75c-0.11,0.68-0.23,1.35-0.4,2.02
		c-1.2,0.56-2.62,0.31-3.8,0.94c-0.6,0.25-0.98,0.8-1.32,1.33c-0.96,1.58-1.56,3.39-1.67,5.23c0.33,1.74,1.81,2.93,2.47,4.51
		c-0.48,0.05-0.96,0.17-1.44,0.12c-0.68-0.08-1.23-0.54-1.71-0.99c-1.07-1.13-1.94-2.43-3.01-3.55c-1.74-1.92-3.81-3.63-6.27-4.52
		c-1.95-0.62-4.19-0.64-6.02,0.37c-1.39,0.72-2.64,1.75-3.48,3.07c-0.5,0.77-0.55,1.75-0.37,2.63c0.26,0.78,0.92,1.33,1.47,1.9
		c2.76,2.55,6.43,3.71,9.97,4.69c1.93,0.44,3.92,0.09,5.86,0.47c0.95,0.25,1.32,1.26,1.71,2.05c-3.51,0.45-7.1,0.02-10.57,0.81
		c-1.86,0.52-3.64,1.41-5.12,2.66c-0.65,0.58-1.35,1.15-1.79,1.92c-1.05,1.7-1.31,3.93-0.48,5.78c0.33,0.76,1.05,1.22,1.69,1.68
		c2.04,1.36,4.59,2.17,7.04,1.65c1.62-0.28,2.98-1.3,4.32-2.19c2.53-1.77,5.15-3.76,8.34-4.02c-0.47,0.92-0.88,1.95-1.76,2.57
		c-2.51,1.67-5.16,3.17-7.35,5.26c-1.35,1.27-1.92,3.11-2.38,4.85c-0.22,1.29-0.25,2.75,0.47,3.9c0.31,0.46,0.62,0.95,1.09,1.27
		c0.67,0.51,1.56,0.38,2.34,0.31c1.91-0.33,3.6-1.42,4.98-2.74c2.38-2.41,4.79-4.81,6.96-7.42c1.76-2.22,3.61-4.41,5.01-6.87
		c-0.17-1.44-0.32-2.9-0.57-4.33l0.04-0.05c-0.8-6.16-1.56-12.33-2.33-18.49c-0.56-4.21-1-8.44-1.62-12.65
		c-3.34-1.63-6.54-3.53-9.98-4.95c-3.07-1.28-6.14-2.54-9.13-4c-3.67-1.76-7.31-3.59-10.85-5.61c0.78-0.78,1.68-1.41,2.6-2.01
		c0.98-0.61,1.85-1.36,2.83-1.96c1.77-1.17,3.49-2.4,5.19-3.67c4.11-2.7,8.26-5.37,12.37-8.07c1.01-0.68,2.02-1.36,3.07-1.97
		c-0.15-1.55-0.36-3.09-0.53-4.63C130.96,137.33,130.46,137.71,129.94,138.03z M129.29,147.08c-6.07,3.69-11.93,7.75-17.36,12.35
		c5.34,3.03,10.82,5.84,16.51,8.19c1.15,0.48,2.29,1,3.44,1.5c1.23,0.54,2.51,1,3.73,1.58c-0.82-6.44-1.59-12.89-2.37-19.34
		c-0.13-1.12-0.26-2.24-0.42-3.36c-0.07-0.89-0.2-1.78-0.3-2.67C131.43,145.88,130.37,146.5,129.29,147.08z"/>
	<path class="st4" d="M201.01,62.54c11.47,0,22.93,0.01,34.4,0c-0.36,1.17-0.7,2.35-1.06,3.53c-10.92,0.01-21.84,0-32.76,0
		C201.4,64.89,201.18,63.72,201.01,62.54z"/>
	<path class="st4" d="M195.32,75.5c4-0.89,8.25-0.08,11.85,1.81c2.86,1.47,5.25,3.7,7.31,6.15c1.9,2.31,3.47,4.9,4.57,7.68
		c0.1,0.14,0.08,0.49,0.33,0.45c1.29-2.91,3.21-5.52,5.54-7.67c1.83-1.69,3.84-3.27,6.21-4.11c3.8-1.38,8.12-1.71,11.95-0.27
		c3.03,1.11,5.6,3.21,7.66,5.65c1.94,2.22,3.22,4.92,4.19,7.68c0.92,2.53,1.22,5.24,1.31,7.92c-0.05,1.61,0.04,3.22-0.19,4.82
		c-0.19,1.53-0.42,3.07-0.77,4.58c-1.86,5.39-4.91,10.6-9.64,13.96c-3.16,2.23-7.05,3.39-10.91,3.28c-2.77-0.1-5.53-0.9-7.86-2.41
		c-3.2-2.03-5.76-5.02-7.32-8.47c-0.99,3.01-2.73,5.71-4.74,8.14c-1.66,1.89-3.67,3.46-5.92,4.59c-3.5,1.72-7.61,2.11-11.39,1.16
		c-2.87-0.68-5.49-2.13-7.84-3.88c-1.93-1.73-3.72-3.67-5.18-5.82c-1.9-2.9-3.31-6.11-4.37-9.4c-0.57-1.57-1.05-3.18-1.22-4.85
		c-0.23-2.18-0.42-4.37-0.32-6.56c0.15-1.19,0.08-2.4,0.31-3.57c0.63-3.24,1.48-6.46,2.94-9.43c1.22-2.48,2.81-4.78,4.82-6.68
		C189.04,77.94,192.04,76.19,195.32,75.5z M188.98,81c-2.37,2.19-4.13,4.96-5.36,7.93c-1.72,4.23-2.42,8.85-2.24,13.41
		c0.31,6.98,2.46,14.07,6.95,19.52c2.1,2.57,4.73,4.78,7.83,6.03c3.85,1.65,8.44,1.36,12.09-0.67c2.41-1.35,4.5-3.3,6.02-5.61
		c1.7-2.37,2.92-5.07,3.69-7.88c1.99-7.28,1.41-15.19-1.38-22.19c-1.21-2.97-2.82-5.81-4.95-8.22c-2.1-2.37-4.68-4.42-7.7-5.47
		c-1.38-0.54-2.86-0.82-4.34-0.93C195.68,76.73,191.83,78.37,188.98,81z M234.03,80.66c-3.43,0.93-6.44,3.08-8.71,5.79
		c-2.16,2.54-3.74,5.54-4.76,8.71c-0.09,0.27-0.18,0.56-0.1,0.85c0.24,1.62,0.55,3.22,0.78,4.84c0.31,1.99,0.19,4.02,0.18,6.03
		c-0.17,1.54-0.29,3.09-0.6,4.61c-0.12,0.71-0.42,1.45-0.19,2.18c1.15,3.15,2.97,6.11,5.51,8.34c2.09,1.89,4.74,3.16,7.54,3.51
		c3.6,0.54,7.3-0.68,10.18-2.82c2.41-1.56,4.26-3.85,5.78-6.26c1.79-2.86,2.93-6.09,3.57-9.39c0.89-4.4,0.74-9.02-0.49-13.34
		c-0.81-2.93-2.3-5.64-4.19-8.02l-0.06-0.03c-1.26-1.64-2.95-2.93-4.77-3.9C240.76,80.21,237.24,79.77,234.03,80.66z"/>
	<path class="st4" d="M275.06,107.68c0.11,0,0.32-0.01,0.43-0.01c0.77,7.77-1.74,15.6-6.03,22.03c-3.64,5.43-8.48,10.03-14.04,13.47
		c-5.69,3.59-12.06,6.01-18.6,7.49c-1.11,0.34-2.33,0.74-3.03,1.75c-1.93,2.62-2.76,5.86-3.27,9.02c-0.35,1.77,0.05,3.59,0.53,5.3
		c0.2,0.83,0.46,1.66,0.79,2.46c-0.84-0.07-1.67,0.03-2.51,0.1c-0.72-1.29-1.19-2.72-1.27-4.2c-0.24-2.4,0.31-4.78,0.77-7.12
		c-5.81,0.56-11.65,0.85-17.49,0.77c-2.56-0.07-5.13,0.01-7.69-0.17c-8.93-0.47-17.89-1.32-26.6-3.41c0.86,1.66,1.6,3.4,2.67,4.94
		c0.87,1.35,1.95,2.55,3.05,3.71c2.12,2.42,4.2,4.9,6.59,7.06c2.41,2.21,4.57,4.78,7.52,6.31c1.35,0.69,2.68,1.45,4.1,2
		c0.52,0.21,1.02,0.48,1.51,0.76c5.05,2.52,10.91,2.7,16.42,2.06c1.69-0.19,3.31-0.71,4.96-1.08c3.6-0.9,7.28-1.83,10.46-3.81
		c1.05-0.63,2.04-1.39,2.83-2.33c0.5-0.51,1.01-1.01,1.54-1.49c1.3-0.85,2.53-1.87,4.04-2.32c1.67-0.44,3.64,0.69,3.96,2.41
		c0.12,1.65-0.54,3.21-0.8,4.82c1.16,0.24,2.47,0.35,3.35,1.24c0.45,0.43,0.53,1.07,0.65,1.65c-1.41-0.21-2.77-0.68-4.2-0.74
		c-1.01-0.08-2.01,0.03-3.01,0.13c-0.17-2.53,1.14-4.83,1.57-7.27c-1.21,0.18-2.13,1.02-3.1,1.69c-1.53,1.19-3.07,2.38-4.66,3.49
		c-2.98,2-6.45,3.13-9.93,3.9c-1.78,0.47-3.58,0.86-5.37,1.29c-2.27,0.4-4.58,0.67-6.9,0.52c-2.16-0.07-4.33-0.16-6.48-0.47
		c-3.42-0.62-6.66-1.93-9.78-3.4c-1.34-0.69-2.71-1.36-3.9-2.3c-1.52-1.19-2.98-2.45-4.42-3.73c-1.21-0.97-2.3-2.08-3.34-3.23
		c-1.45-1.33-2.74-2.83-4.11-4.24c-3.28-3.72-5.94-7.99-7.86-12.55c-0.82-2.16-1.77-4.25-2.6-6.4c-0.7-1.55-1.15-3.19-1.77-4.78
		c-0.43-1.45-1.14-2.82-2.05-4.02c-5.2-5.24-8.31-12.18-10.36-19.18c-1.54,0.77-2.93,1.81-4.21,2.95c-1.14,1.07-2.48,1.99-3.18,3.44
		c-0.11-0.03-0.33-0.09-0.43-0.12c-0.15-1.34,0.61-2.54,1.32-3.6c3.61-4.63,9.44-7.29,15.26-7.5c0.03,0.9-0.19,1.78-0.13,2.69
		c-0.84,0.06-1.67,0.25-2.51,0.24c-1.49-0.03-2.9,0.54-4.28,1.05c1.04,3.17,2.15,6.33,3.68,9.3c2.46,4.87,5.94,9.28,10.33,12.54
		c5.4,4.12,11.86,6.6,18.42,8.21c4.28,1.09,8.66,1.69,13.05,2.17c3.99,0.34,8,0.53,12.01,0.37c8.59-0.21,17.22-1.42,25.38-4.2
		c6.49-2.29,12.67-5.64,17.84-10.22c2.44-2.17,4.69-4.57,6.61-7.21c2.15-2.88,3.71-6.14,5.23-9.37
		C273.92,116.52,274.97,112.11,275.06,107.68z M172.38,143.46c1.14,3.51,2.34,7.03,4.11,10.29c0.15,0.36,0.58,0.34,0.91,0.43
		c1.75,0.31,3.49,0.7,5.26,0.95c1.8,0.36,3.62,0.61,5.44,0.84c9.22,1.29,18.52,2.04,27.83,1.85c2.54,0,5.06-0.26,7.6-0.35
		c1.97-0.17,3.93-0.44,5.91-0.58c0.39-1.74,1.25-3.32,1.83-4.99c-6.18,1.1-12.47,1.32-18.73,1.19c-8.89-0.36-17.85-1.19-26.41-3.75
		c-2.04-0.48-4.03-1.11-5.93-2c-0.92-0.43-1.85-0.86-2.79-1.25C175.63,145.41,174.14,144.17,172.38,143.46z"/>
	<path class="st6" d="M123.5,41.16c3.41-0.42,6.84-0.57,10.27-0.68c54.29,0,108.58,0,162.88,0c4.19-0.03,8.4,0.1,12.57,0.55
		c2.47,1.56,4.74,3.67,5.88,6.41c0.84,1.96,0.94,4.22,0.26,6.25c-0.8,2.46-2.59,4.46-4.6,6.04c-1.19,0.94-2.54,1.63-3.86,2.38
		c-4.51,0.58-9.08,0.4-13.62,0.43c-16.74-0.01-33.48,0.03-50.21-0.02c-2.13-1.26-4.42-2.23-6.79-2.96c-0.3,0.99-0.58,1.98-0.87,2.98
		c-11.47,0.01-22.93,0.01-34.4,0c-0.22-1.45-0.45-2.9-0.69-4.35c-1.11,0.03-2.16,0.44-3.23,0.71c-2.04,0.54-4.14,1-6.01,2.01
		c-0.76,0.4-1.37,1.01-1.99,1.59c-4.41,0.1-8.84,0.01-13.26,0.04c-14.14,0-28.27,0.01-42.41,0c-3.81-0.13-7.61-0.46-11.41-0.84
		l0-0.05c0-0.05,0-0.14-0.01-0.18c-2.11-1.39-4.05-3.14-5.24-5.4c-0.98-1.82-1.37-3.97-0.95-6.01c0.31-1.37,0.64-2.77,1.36-4
		c0.97-1.75,2.43-3.17,3.99-4.39c-0.02-0.05-0.06-0.15-0.09-0.21l-0.03-0.07C121.87,41.38,122.68,41.25,123.5,41.16z"/>
	<path class="st6" d="M398.82,48.27c1.71-1.08,3.71-2.08,5.79-1.67c1.33,0.3,1.85,1.88,1.63,3.09c-0.22,2.24-0.87,4.49-2.17,6.35
		c-2.34,3.3-5.93,5.41-8.41,8.59c-1.5,1.79-3.5,3.1-4.93,4.95c0.25,1.43,0.72,2.82,1.39,4.11c3.15-0.37,6.08-1.74,9.19-2.28
		c4.41-0.76,8.92-0.72,13.31-1.61c2-0.37,4.05,0.18,5.86,1.03c0.77,0.36,1.52,0.98,1.69,1.86c0.17,0.89-0.33,1.71-0.75,2.46
		c-0.93,1.46-2.51,2.3-4,3.08c-2.38,1.31-5.11,1.71-7.77,2.03c-4.38,0.46-8.73-0.95-13.12-0.43c-1.12,0.06-2.27,0.46-3.07,1.25
		c-0.51,1.33-0.39,2.8-0.38,4.2c1.67,0.95,3.5,1.63,5.41,1.89c2.95,0.42,5.89,1.23,8.52,2.68c1.66,0.9,3.3,2.07,4.14,3.81
		c0.66,1.43,0.99,3.25,0.13,4.67c-2.96,0.9-6.02-0.3-8.64-1.65c-2.83-1.55-5.46-3.47-7.79-5.7c-1.5-1.47-2.98-2.97-4.5-4.42
		c-1.94,2.23-4.58,3.82-7.44,4.56c-4.39,1.21-9.28,0.73-13.22-1.6c-0.17-0.08-0.35-0.25-0.53-0.1c-0.47,0.28-0.82,0.71-1.22,1.06
		c-10.27,8.87-21.76,16.31-33.91,22.35c-8.13,4.02-16.61,7.33-25.34,9.78c-1.38,0.32-2.72,0.82-4.13,1.01
		c0.08-0.9,0.19-1.79,0.32-2.68c6.97-2.08,13.82-4.57,20.42-7.63c5.21-2.36,10.24-5.06,15.25-7.81c4.06-2.05,7.78-4.68,11.48-7.31
		c3.95-2.9,7.76-6.04,12.07-8.4c-0.27-3.52-1.49-7.02-0.84-10.57c0.57-3.35,3.42-5.85,3.78-9.27c0.18-1.11-0.4-2.14-1.04-2.99
		c-1.28-1.67-3.09-2.81-4.63-4.23c-0.9-0.84-1.75-1.81-2.15-2.99c-0.68-1.94-0.51-4.1,0.16-6.01c1.02-2.7,4.33-4.1,7.03-3.26
		c0.96,0.28,1.77,0.89,2.52,1.53c1.72,1.44,3.04,3.38,3.65,5.55c0.49,1.61,0.37,3.31,0.37,4.97c0.03,1.88-0.25,3.75-0.34,5.62
		c2.73,0.57,5.55,0.93,8.33,0.58c0.94-0.1,1.63-0.82,2.19-1.51c4.28-4.88,7.26-10.74,11.58-15.58
		C395.91,50.31,397.28,49.15,398.82,48.27z"/>
	<path class="st6" d="M130.99,72.02c5.65,0.11,11.31,0.03,16.96,0.06c11.79,0.01,23.58-0.02,35.37,0.02
		c0.01,0.72-0.04,1.46,0.13,2.17c0.02,0.09,0.05,0.26,0.07,0.35c1.28-0.9,2.53-1.87,3.93-2.6c0.85,0.07,1.7,0.07,2.56,0.06
		c14.73,0,29.46,0,44.18,0c4.16-0.03,8.31,0.07,12.47-0.05c0.78,0.52,1.57,1.01,2.4,1.44c0.01-0.46,0.02-0.93,0.03-1.39
		c17.1,0.02,34.2-0.03,51.29,0.02c-0.23,2.45-0.55,4.89-0.83,7.34c-3,25.66-5.87,51.33-8.88,76.99
		c-2.76,24.02-5.68,48.02-8.51,72.03c-0.73,5.92-1.36,11.85-2.11,17.76c-0.9,6.04-3.01,12.01-6.7,16.92
		c-1.99,2.63-4.51,5.01-7.64,6.22c-1.27,0.53-2.66,0.66-4.03,0.68c-15.02,0.27-30.04,0.48-45.07,0.65
		c-1.72-0.05-3.43,0.17-5.15,0.16c-1.04,0.04-2.1-0.1-3.12,0.16c-0.96,0.14-1.94,0.05-2.9,0.07c-11.77,0.2-23.54,0.43-35.32,0.51
		c-2.11-0.09-4.3,0.23-6.34-0.48c-2.56-0.81-4.69-2.58-6.42-4.58c-0.92-1.01-1.81-2.05-2.56-3.19l0-0.09c0-0.06,0-0.19,0-0.26
		c-2.42-4.2-3.96-8.88-4.66-13.67c-0.43-3.08-0.55-6.19-0.87-9.28c-0.87-9.5-1.74-19-2.73-28.49c-1.69-16.58-3.62-33.14-5.53-49.69
		c-1.01-8.82-2.12-17.63-3.11-26.45c-0.98-8.57-2.02-17.13-2.97-25.7c-1.06-9.64-2.15-19.28-3.15-28.93
		C131.52,77.86,131.1,74.95,130.99,72.02z M195.32,75.5c-3.28,0.69-6.28,2.44-8.68,4.75c-2.01,1.9-3.6,4.21-4.82,6.68
		c-1.46,2.97-2.31,6.19-2.94,9.43c-0.24,1.18-0.17,2.38-0.31,3.57c-0.1,2.19,0.09,4.38,0.32,6.56c0.17,1.67,0.65,3.28,1.22,4.85
		c-0.11,0.27-0.04,0.55-0.01,0.83c0.36,2.44,1.15,4.8,2.2,7.03c1.45,2.88,3.27,5.62,5.61,7.86c1.87,1.84,4.14,3.26,6.58,4.23
		c3.58,1.6,7.68,2.07,11.5,1.12c3.44-0.79,6.56-2.67,9.07-5.12c1.9-1.86,3.32-4.13,4.57-6.46c2.37,3.2,5.57,5.87,9.34,7.21
		c3.92,1.41,8.31,1.71,12.29,0.42c5.73-1.79,10.26-6.44,12.59-11.89c1.62-3.3,2.59-6.93,2.73-10.6c0.02-1.72,0.09-3.49-0.37-5.17
		c-0.09-2.68-0.4-5.38-1.31-7.92c-0.97-2.76-2.25-5.47-4.19-7.68c-2.06-2.44-4.63-4.55-7.66-5.65c-3.83-1.45-8.15-1.12-11.95,0.27
		c-2.37,0.84-4.38,2.42-6.21,4.11c-2.33,2.16-4.25,4.77-5.54,7.67c-0.25,0.04-0.22-0.31-0.33-0.45c-1.09-2.78-2.67-5.37-4.57-7.68
		c-2.06-2.44-4.45-4.68-7.31-6.15C203.57,75.42,199.31,74.61,195.32,75.5z M275.06,107.68c-0.1,4.43-1.14,8.84-3.03,12.85
		c-1.52,3.24-3.08,6.49-5.23,9.37c-1.92,2.64-4.17,5.04-6.61,7.21c-5.17,4.58-11.34,7.93-17.84,10.22
		c-8.16,2.78-16.78,3.99-25.38,4.2c-4.01,0.17-8.02-0.03-12.01-0.37c-4.39-0.48-8.77-1.08-13.05-2.17
		c-6.55-1.6-13.02-4.08-18.42-8.21c-4.39-3.27-7.87-7.68-10.33-12.54c-1.54-2.97-2.65-6.13-3.68-9.3c1.38-0.51,2.79-1.08,4.28-1.05
		c0.84,0.01,1.67-0.17,2.51-0.24c-0.06-0.9,0.16-1.79,0.13-2.69c-5.81,0.21-11.65,2.87-15.26,7.5c-0.7,1.07-1.47,2.27-1.32,3.6
		c0.11,0.03,0.33,0.09,0.43,0.12c0.7-1.44,2.04-2.37,3.18-3.44c1.28-1.14,2.67-2.18,4.21-2.95c2.05,7,5.16,13.94,10.36,19.18
		c0.92,1.2,1.62,2.57,2.05,4.02c0.62,1.58,1.06,3.23,1.77,4.78c0.83,2.15,1.78,4.25,2.6,6.4c1.92,4.57,4.58,8.83,7.86,12.55
		c1.37,1.41,2.66,2.91,4.11,4.24c1.05,1.14,2.13,2.25,3.34,3.23c1.44,1.28,2.9,2.54,4.42,3.73c1.19,0.93,2.56,1.6,3.9,2.3
		c3.13,1.47,6.37,2.79,9.78,3.4c2.15,0.3,4.32,0.4,6.48,0.47c2.31,0.15,4.62-0.11,6.9-0.52c1.79-0.43,3.59-0.82,5.37-1.29
		c3.48-0.77,6.94-1.9,9.93-3.9c1.59-1.11,3.13-2.3,4.66-3.49c0.97-0.68,1.89-1.51,3.1-1.69c-0.43,2.44-1.73,4.74-1.57,7.27
		c1-0.09,2-0.2,3.01-0.13c1.43,0.06,2.8,0.53,4.2,0.74c-0.13-0.58-0.21-1.22-0.65-1.65c-0.88-0.89-2.2-1-3.35-1.24
		c0.26-1.61,0.91-3.17,0.8-4.82c-0.32-1.73-2.29-2.86-3.96-2.41c-1.51,0.45-2.74,1.48-4.04,2.32c-1.1-1.09-2.25-2.18-3.64-2.9
		c-1.02-0.52-2.08-1.07-3.23-1.2c-0.33-0.8-0.59-1.62-0.79-2.46c-0.49-1.71-0.88-3.52-0.53-5.3c0.51-3.16,1.34-6.4,3.27-9.02
		c0.7-1.01,1.91-1.41,3.03-1.75c6.55-1.48,12.91-3.9,18.6-7.49c5.56-3.43,10.4-8.04,14.04-13.47c4.29-6.44,6.8-14.26,6.03-22.03
		C275.38,107.67,275.17,107.68,275.06,107.68z"/>
	<path class="st6" d="M125.55,140.32c1.48-0.74,2.89-1.6,4.38-2.29c-0.38,1.9-0.64,3.83-0.92,5.75c-4.11,2.7-8.26,5.36-12.37,8.07
		c-1.7,1.27-3.42,2.5-5.19,3.67c-0.98,0.6-1.85,1.36-2.83,1.96c-0.92,0.6-1.82,1.23-2.6,2.01c3.54,2.02,7.18,3.85,10.85,5.61
		c2.99,1.46,6.06,2.73,9.13,4c3.44,1.42,6.64,3.32,9.98,4.95c0.61,4.21,1.06,8.43,1.62,12.65c0.77,6.16,1.53,12.33,2.33,18.49
		l-0.04,0.05c-1.22,1.36-2.15,2.94-3.23,4.41c-1.75,2.37-3.51,4.75-5.57,6.86c-1.86,2.27-3.88,4.43-6.21,6.22
		c-1.44,1.07-3.05,1.92-4.82,2.29c-0.72-1.15-0.69-2.6-0.47-3.9c0.46-1.74,1.03-3.58,2.38-4.85c2.2-2.08,4.85-3.59,7.35-5.26
		c0.87-0.62,1.29-1.65,1.76-2.57c-3.19,0.26-5.81,2.24-8.34,4.02c-1.34,0.89-2.69,1.9-4.32,2.19c-2.45,0.52-5-0.29-7.04-1.65
		c-0.65-0.46-1.36-0.93-1.69-1.68c-0.82-1.85-0.57-4.08,0.48-5.78c0.44-0.77,1.14-1.33,1.79-1.92c1.49-1.25,3.26-2.13,5.12-2.66
		c3.47-0.79,7.06-0.36,10.57-0.81c-0.39-0.79-0.76-1.8-1.71-2.05c-1.93-0.37-3.93-0.03-5.86-0.47c-3.54-0.98-7.22-2.14-9.97-4.69
		c-0.55-0.58-1.21-1.12-1.47-1.9c-0.18-0.88-0.13-1.86,0.37-2.63c0.84-1.33,2.1-2.36,3.48-3.07c1.83-1.01,4.07-0.98,6.02-0.37
		c2.46,0.89,4.54,2.6,6.27,4.52c1.07,1.12,1.94,2.42,3.01,3.55c0.48,0.45,1.03,0.91,1.71,0.99c0.48,0.04,0.96-0.07,1.44-0.12
		c-0.66-1.59-2.14-2.78-2.47-4.51c0.11-1.85,0.71-3.65,1.67-5.23c0.34-0.53,0.72-1.08,1.32-1.33c1.18-0.63,2.59-0.38,3.8-0.94
		c0.17-0.67,0.29-1.34,0.4-2.02c-1.46-0.4-2.97-0.57-4.47-0.75c-2.1-0.41-3.93-1.59-5.88-2.42c-1.78-0.97-3.75-1.52-5.57-2.42
		c-1.17-0.5-2.22-1.26-3.42-1.71c-1.72-0.82-3.43-1.65-5.12-2.53c-1.74-0.9-3.24-2.19-4.8-3.37c-2.27-1.73-4.46-3.67-5.89-6.18
		c-0.68-1.03-0.52-2.46,0.23-3.42c0.61-0.98,1.55-1.64,2.43-2.35c2.99-2.4,6.13-4.62,9.45-6.55c1.28-0.7,2.47-1.55,3.7-2.33
		C119.34,143.89,122.45,142.11,125.55,140.32z"/>
	<path class="st7" d="M309.21,41.03c2.11,0.17,4.2,0.5,6.29,0.82c3.1,0.83,5.13,3.92,5.47,6.99c0.07,2.01,0.03,4.03-0.33,6.02
		c-0.37,1.75-1.25,3.39-2.44,4.71c-0.89,0.99-2.19,1.42-3.45,1.7c-2.6,0.42-5.22,0.78-7.85,0.85c1.31-0.75,2.67-1.44,3.86-2.38
		c2-1.58,3.79-3.58,4.6-6.04c0.68-2.02,0.58-4.28-0.26-6.25C313.95,44.7,311.68,42.59,309.21,41.03z"/>
	<path class="st7" d="M128.72,65.9c2.87,0.15,5.74,0.2,8.61,0.17c16.18,0.01,32.36-0.01,48.54,0.01l-0.09,0.13
		c-1.07,1.49-2,3.15-2.32,4.98c-0.07,1.02-0.01,2.05,0.01,3.07c-0.17-0.71-0.12-1.45-0.13-2.17c-11.79-0.04-23.58-0.01-35.37-0.02
		c-5.65-0.02-11.31,0.05-16.96-0.06c-0.84-0.05-1.68-0.06-2.52-0.11C128.45,69.9,128.42,67.89,128.72,65.9z"/>
	<path class="st7" d="M293.45,66.07c4.4-0.02,8.8,0.09,13.19-0.26c0.35,2.25,0.22,4.53,0.18,6.79c-0.43,4.39-1.02,8.76-1.51,13.14
		c-1.04,8.8-2.08,17.6-3.04,26.4c-0.56,4.32-0.99,8.66-1.54,12.99c-0.99,8.36-1.87,16.74-2.92,25.09
		c-1.02,8.6-2.06,17.21-3.07,25.81c-1.43,12.37-3.07,24.72-4.46,37.1c-1.35,10.58-2.59,21.17-3.84,31.76
		c-0.54,5.48-2.15,10.87-4.81,15.69c-1.53,2.68-3.41,5.18-5.74,7.22c-2.19,1.86-4.88,3.34-7.81,3.45c-1.83,0.07-3.67,0.03-5.5,0.03
		c-1.96-0.14-3.91,0.1-5.87-0.03c-1.65-0.02-3.31,0.03-4.96-0.05c-3.67,0.09-7.34-0.05-11.01-0.03c-4.37,0.02-8.75-0.07-13.12-0.11
		c-4.38,0.07-8.76-0.15-13.14-0.02c-2.05-0.07-4.1,0.16-6.14-0.02c1.02-0.26,2.08-0.12,3.12-0.16c1.72,0.02,3.43-0.21,5.15-0.16
		c15.02-0.17,30.04-0.38,45.07-0.65c1.36-0.02,2.76-0.16,4.03-0.68c3.13-1.2,5.64-3.58,7.64-6.22c3.69-4.91,5.8-10.88,6.7-16.92
		c0.75-5.92,1.38-11.85,2.11-17.76c2.84-24.01,5.75-48.01,8.51-72.03c3-25.66,5.88-51.33,8.88-76.99c0.27-2.44,0.6-4.89,0.83-7.34
		c-17.1-0.05-34.2,0-51.29-0.02c0.01-2.11-0.94-4.08-1.99-5.85l-0.09-0.14C262.5,66.07,277.97,66.08,293.45,66.07z"/>
	<path class="st7" d="M201.59,66.07c10.92,0,21.84,0.01,32.76,0c-0.21,0.71-0.42,1.42-0.64,2.13c2.85,0.75,5.87,0.74,8.67,1.7
		c1.56,0.4,2.97,1.21,4.29,2.12c-4.16,0.12-8.31,0.02-12.47,0.05c-14.73,0-29.46,0-44.18,0c-0.85,0.01-1.71,0.01-2.56-0.06
		c1.02-0.62,2.12-1.08,3.21-1.56c1.94-0.89,4.04-1.31,6.08-1.86c1.66-0.46,3.38-0.67,5.05-1.07
		C201.74,67.02,201.66,66.55,201.59,66.07z"/>
	<path class="st7" d="M382.92,91.13c2.86-0.73,5.5-2.33,7.44-4.56c1.52,1.45,2.99,2.95,4.5,4.42c2.33,2.23,4.96,4.15,7.79,5.7
		c2.62,1.35,5.67,2.55,8.64,1.65c-0.79,1.38-2.36,2.17-3.91,2.24c-1.95,0.13-4.04-0.02-5.71-1.12c-2.52-1.62-4.35-4.06-6.62-5.99
		c-1.94-1.66-3.94-3.28-6.12-4.61c-1.5,2.14-3.19,4.29-5.56,5.52c-0.97,0.5-2.04,0.83-3.12,0.91c-3.36-0.11-6.4-1.72-9.58-2.6
		c-0.85-0.31-1.63,0.23-2.32,0.67c-1.6,1.03-2.94,2.39-4.39,3.62c-2.38,1.94-4.96,3.61-7.56,5.23c-3.53,2.19-7.14,4.27-10.86,6.13
		c-2.88,1.36-5.7,2.86-8.57,4.25c-6.43,3.13-12.99,6.01-19.73,8.4c-4.21,1.51-8.49,2.8-12.8,3.95c0.02-0.44,0.06-0.88,0.14-1.31
		c1.41-0.19,2.75-0.69,4.13-1.01c8.73-2.44,17.22-5.76,25.34-9.78c12.15-6.03,23.63-13.47,33.91-22.35
		c0.41-0.35,0.76-0.78,1.22-1.06c0.18-0.15,0.36,0.02,0.53,0.1C373.63,91.86,378.53,92.34,382.92,91.13z"/>
	<path class="st7" d="M256.22,100.8c0.46,1.68,0.39,3.44,0.37,5.17c-0.14,3.68-1.11,7.3-2.73,10.6c-2.33,5.45-6.86,10.1-12.59,11.89
		c-3.99,1.29-8.38,1-12.29-0.42c-3.78-1.34-6.98-4.01-9.34-7.21c-1.25,2.33-2.67,4.6-4.57,6.46c-2.51,2.45-5.64,4.33-9.07,5.12
		c-3.82,0.95-7.92,0.48-11.5-1.12c-2.43-0.97-4.7-2.39-6.58-4.23c-2.34-2.24-4.16-4.98-5.61-7.86c-1.05-2.23-1.84-4.59-2.2-7.03
		c-0.04-0.28-0.11-0.56,0.01-0.83c1.07,3.29,2.47,6.5,4.37,9.4c1.46,2.15,3.25,4.08,5.18,5.82c2.35,1.75,4.97,3.2,7.84,3.88
		c3.78,0.95,7.89,0.56,11.39-1.16c2.25-1.12,4.27-2.7,5.92-4.59c2.01-2.42,3.75-5.13,4.74-8.14c1.56,3.45,4.12,6.44,7.32,8.47
		c2.33,1.52,5.09,2.32,7.86,2.41c3.86,0.11,7.75-1.05,10.91-3.28c4.72-3.36,7.77-8.57,9.64-13.96c0.35-1.51,0.58-3.05,0.77-4.58
		C256.26,104.02,256.17,102.4,256.22,100.8z"/>
	<path class="st7" d="M129.94,138.03c0.53-0.32,1.03-0.7,1.63-0.86c0.17,1.55,0.37,3.09,0.53,4.63c-1.05,0.61-2.07,1.29-3.07,1.97
		C129.29,141.86,129.56,139.93,129.94,138.03z"/>
	<path class="st7" d="M136.66,209.64c1.08-1.47,2.01-3.05,3.23-4.41c0.26,1.43,0.4,2.89,0.57,4.33c-1.41,2.47-3.25,4.65-5.01,6.87
		c-2.17,2.61-4.58,5.01-6.96,7.42c-1.39,1.31-3.08,2.4-4.98,2.74c-0.78,0.07-1.68,0.2-2.34-0.31c-0.47-0.32-0.78-0.81-1.09-1.27
		c1.77-0.37,3.38-1.22,4.82-2.29c2.33-1.79,4.35-3.95,6.21-6.22C133.16,214.39,134.91,212.01,136.66,209.64z"/>
	<path class="st5" d="M119.41,41.72c0.56-0.06,1.11-0.19,1.66-0.25c0.02,0.05,0.06,0.16,0.09,0.21c-1.57,1.22-3.03,2.63-3.99,4.39
		c-0.72,1.23-1.05,2.63-1.36,4c-0.41,2.04-0.02,4.19,0.95,6.01c1.19,2.26,3.13,4.01,5.24,5.4c0,0.04,0,0.13,0.01,0.18
		c-1.67-0.19-3.38-0.38-4.91-1.1c-1.48-0.81-2.38-2.33-3.11-3.8c-0.88-2.1-1-4.43-0.98-6.68c-0.1-2.14,0.7-4.28,2.03-5.94
		C116.12,42.83,117.69,41.84,119.41,41.72z"/>
	<path class="st5" d="M128.47,71.91c0.84,0.05,1.68,0.06,2.52,0.11c0.11,2.93,0.53,5.84,0.81,8.76c1,9.65,2.09,19.29,3.15,28.93
		c0.95,8.57,2,17.13,2.97,25.7c0.99,8.82,2.1,17.63,3.11,26.45c1.91,16.56,3.85,33.11,5.53,49.69c0.98,9.49,1.85,18.99,2.73,28.49
		c0.33,3.09,0.44,6.2,0.87,9.28c0.7,4.79,2.24,9.47,4.66,13.67c0,0.06,0,0.19,0,0.26c-2.11-2.96-3.51-6.38-4.58-9.83
		c-0.42-1.46-0.78-2.93-1.03-4.43c-0.45-2.4-0.53-4.84-0.83-7.26c-1.36-13.14-2.94-26.26-4.46-39.38
		c-1.05-8.71-2.16-17.41-3.24-26.12c-1.52-12.71-3.21-25.4-4.75-38.11c-0.54-4.28-0.97-8.57-1.57-12.84
		c-0.51-4.22-1.03-8.43-1.53-12.65c-1.15-10.56-2.42-21.12-3.53-31.69c-0.24-2.42-0.5-4.83-0.78-7.24
		C128.45,73.1,128.46,72.5,128.47,71.91z"/>
	<path class="st8" d="M197.08,58.9c1.07-0.27,2.11-0.68,3.23-0.71c0.24,1.45,0.47,2.9,0.69,4.35c0.17,1.18,0.39,2.35,0.58,3.53
		c0.07,0.48,0.15,0.95,0.22,1.43c-1.67,0.41-3.39,0.61-5.05,1.07c-2.05,0.55-4.15,0.98-6.08,1.86c-1.09,0.48-2.19,0.95-3.21,1.56
		c-1.4,0.73-2.65,1.69-3.93,2.6c-0.02-0.09-0.06-0.26-0.07-0.35c-0.02-1.02-0.08-2.05-0.01-3.07c0.32-1.83,1.25-3.48,2.32-4.98
		c0.99-1.33,2.09-2.59,3.32-3.71c0.62-0.58,1.23-1.19,1.99-1.59C192.95,59.91,195.04,59.44,197.08,58.9z"/>
	<path class="st8" d="M236.28,59.56c2.36,0.73,4.65,1.7,6.79,2.96c1.57,0.94,3.05,2.13,4.04,3.7c1.06,1.77,2.01,3.74,1.99,5.85
		c-0.01,0.46-0.02,0.93-0.03,1.39c-0.83-0.42-1.63-0.92-2.4-1.44c-1.32-0.91-2.73-1.72-4.29-2.12c-2.81-0.96-5.82-0.95-8.67-1.7
		c0.21-0.71,0.42-1.42,0.64-2.13c0.36-1.17,0.7-2.35,1.06-3.53C235.69,61.55,235.98,60.55,236.28,59.56z"/>
	<path class="st9" d="M188.98,81c2.85-2.62,6.71-4.27,10.62-4.09c1.48,0.11,2.96,0.39,4.34,0.93c-1.74-0.07-3.5-0.14-5.2,0.32
		c-3.8,0.86-7.04,3.37-9.36,6.44c-3.57,4.74-5.21,10.71-5.35,16.59c-0.11,6.53,1.58,13.25,5.51,18.56c1.84,2.49,4.22,4.63,7.04,5.95
		c2.7,1.29,5.82,1.74,8.76,1.13c3.04-0.6,5.84-2.24,7.99-4.45c0.28-0.29,0.61-0.52,0.94-0.76c-1.52,2.31-3.61,4.26-6.02,5.61
		c-3.65,2.04-8.24,2.32-12.09,0.67c-3.1-1.25-5.73-3.46-7.83-6.03c-4.49-5.45-6.63-12.54-6.95-19.52
		c-0.18-4.56,0.52-9.17,2.24-13.41C184.84,85.96,186.61,83.18,188.98,81z"/>
	<path class="st9" d="M234.03,80.66c3.21-0.89,6.74-0.45,9.68,1.11c1.82,0.97,3.51,2.26,4.77,3.9c-0.67-0.3-1.07-0.95-1.63-1.4
		c-2.27-1.95-5.2-3.19-8.22-3.19c-3.39-0.07-6.66,1.43-9.16,3.66c-4.06,3.62-6.4,8.85-7.26,14.16c-1,6.14-0.14,12.73,3.11,18.11
		c1.55,2.52,3.67,4.75,6.34,6.08c2.86,1.47,6.31,1.73,9.36,0.71c0.98-0.27,1.84-0.87,2.84-1.09c-2.88,2.14-6.59,3.36-10.18,2.82
		c-2.8-0.35-5.45-1.62-7.54-3.51c-2.53-2.23-4.35-5.19-5.51-8.34c-0.24-0.72,0.07-1.46,0.19-2.18c0.31-1.52,0.43-3.07,0.6-4.61
		c0.01-2.01,0.13-4.04-0.18-6.03c-0.23-1.62-0.53-3.23-0.78-4.84c-0.08-0.29,0.01-0.58,0.1-0.85c1.02-3.17,2.6-6.17,4.76-8.71
		C227.58,83.74,230.6,81.59,234.03,80.66z"/>
	<path class="st10" d="M198.73,78.15c1.69-0.46,3.46-0.4,5.2-0.32c3.01,1.05,5.59,3.11,7.7,5.47c2.13,2.41,3.74,5.25,4.95,8.22
		c2.78,7,3.37,14.91,1.38,22.19c-0.78,2.81-1.99,5.51-3.69,7.88c-0.32,0.24-0.65,0.48-0.94,0.76c-2.15,2.21-4.95,3.85-7.99,4.45
		c-2.94,0.62-6.06,0.17-8.76-1.13c-2.82-1.32-5.2-3.46-7.04-5.95c-3.93-5.3-5.61-12.02-5.51-18.56c0.14-5.88,1.78-11.85,5.35-16.59
		C191.7,81.53,194.94,79.01,198.73,78.15z M201.45,97.04c-1.93,0.45-3.4,2-4.26,3.72c-1.61,3.26-1.63,7.25-0.06,10.53
		c0.74,1.52,1.91,2.91,3.5,3.58c0.9,0.43,1.92,0.27,2.88,0.26c1.93-0.4,3.39-1.96,4.26-3.65c1.64-3.27,1.66-7.29,0.1-10.59
		c-0.73-1.48-1.85-2.84-3.38-3.53C203.54,97,202.46,96.64,201.45,97.04z"/>
	<path class="st10" d="M229.46,84.74c2.5-2.23,5.77-3.73,9.16-3.66c3.01,0,5.95,1.24,8.22,3.19c0.55,0.45,0.96,1.1,1.63,1.4
		l0.06,0.03c1.89,2.38,3.38,5.09,4.19,8.02c1.23,4.32,1.38,8.94,0.49,13.34c-0.64,3.3-1.78,6.53-3.57,9.39
		c-1.53,2.41-3.37,4.7-5.78,6.26c-1,0.22-1.86,0.82-2.84,1.09c-3.05,1.02-6.5,0.76-9.36-0.71c-2.67-1.33-4.79-3.56-6.34-6.08
		c-3.24-5.38-4.1-11.97-3.11-18.11C223.06,93.59,225.41,88.36,229.46,84.74z M228.9,98.21c-2.04,0.28-3.66,1.83-4.53,3.63
		c-1.51,3.14-1.47,7,0.15,10.09c0.78,1.44,2.03,2.74,3.66,3.18c0.75,0.09,1.52,0.09,2.28,0c1.41-0.38,2.56-1.42,3.33-2.62
		c0.83-1.26,1.26-2.73,1.48-4.2c0.32-1.6,0.04-3.24-0.37-4.79c-0.56-1.93-1.72-3.82-3.55-4.76C230.58,98.4,229.74,98.09,228.9,98.21
		z"/>
	<path class="st10" d="M198.95,100.72c0.4-0.71,1.22-1.28,2.05-1.07c0.87,0.2,1.43,1.01,1.7,1.82c0.34,1.11,0.25,2.37-0.34,3.37
		c-0.36,0.59-0.97,1.1-1.69,1.1c-0.56,0.01-1.05-0.31-1.43-0.69C198.25,103.98,198.15,102.1,198.95,100.72z"/>
	<path class="st10" d="M226.11,101.62c0.4-0.62,1.18-1.08,1.92-0.84c0.79,0.24,1.27,0.99,1.5,1.74c0.36,1.33,0.11,3.05-1.13,3.85
		c-0.71,0.46-1.63,0.15-2.14-0.46C225.33,104.7,225.27,102.9,226.11,101.62z"/>
	<path class="st10" d="M199.15,106.81c0.35-0.17,0.8-0.21,1.11,0.08c0.8,0.73,0.77,2.15-0.02,2.87c-0.46,0.34-1.13,0.15-1.4-0.33
		C198.31,108.63,198.42,107.45,199.15,106.81z"/>
	<path class="st10" d="M226.22,107.39c0.32-0.12,0.71-0.18,0.98,0.07c0.78,0.67,0.74,2.02-0.01,2.71c-0.29,0.15-0.65,0.23-0.93,0.03
		C225.37,109.57,225.41,108.09,226.22,107.39z"/>
	<path class="st10" d="M180.77,150.71c-0.31-1.1-0.74-2.21-0.58-3.37c1.9,0.89,3.9,1.52,5.93,2c8.56,2.56,17.52,3.39,26.41,3.75
		c6.26,0.13,12.55-0.09,18.73-1.19c-0.58,1.67-1.44,3.25-1.83,4.99c-1.97,0.14-3.94,0.41-5.91,0.58c-2.54,0.09-5.06,0.35-7.6,0.35
		c-9.31,0.18-18.62-0.57-27.83-1.85c-1.82-0.23-3.64-0.48-5.44-0.84C181.98,153.67,181.24,152.24,180.77,150.71z"/>
	<path class="st10" d="M232.12,172.22c0.66-0.19,1.34,0.11,1.88,0.48c0.47,0.32,0.92,0.8,0.95,1.4c-0.01,0.53-0.66,0.72-1.09,0.61
		c-0.9-0.19-1.78-0.79-2.11-1.67C231.58,172.71,231.82,172.35,232.12,172.22z"/>
	<path class="st11" d="M201.45,97.04c1.01-0.4,2.08-0.05,3.04,0.31c1.53,0.69,2.65,2.05,3.38,3.53c1.57,3.3,1.54,7.32-0.1,10.59
		c-0.87,1.69-2.33,3.25-4.26,3.65c-0.96,0.01-1.99,0.17-2.88-0.26c-1.59-0.67-2.76-2.06-3.5-3.58c-1.57-3.28-1.55-7.27,0.06-10.53
		C198.06,99.04,199.53,97.49,201.45,97.04z M198.95,100.72c-0.8,1.38-0.71,3.26,0.29,4.52c-0.07,0.52-0.09,1.05-0.09,1.58
		c-0.73,0.64-0.84,1.82-0.32,2.62c0.28,0.48,0.94,0.66,1.4,0.33c0.47,0.57,1.09,1.06,1.84,1.19c0.87,0.17,1.79-0.2,2.39-0.84
		c0.97-1,1.41-2.42,1.4-3.79c0.03-1.42-0.42-2.9-1.43-3.93c-0.46-0.49-1.11-0.7-1.72-0.94c-0.27-0.8-0.83-1.61-1.7-1.82
		C200.17,99.44,199.35,100.01,198.95,100.72z"/>
	<path class="st11" d="M228.9,98.21c0.84-0.12,1.69,0.18,2.45,0.51c1.83,0.94,2.99,2.83,3.55,4.76c0.4,1.56,0.68,3.2,0.37,4.79
		c-0.22,1.48-0.65,2.95-1.48,4.2c-0.77,1.21-1.92,2.24-3.33,2.62c-0.75,0.09-1.53,0.09-2.28,0c-1.63-0.44-2.88-1.74-3.66-3.18
		c-1.62-3.09-1.65-6.95-0.15-10.09C225.24,100.04,226.86,98.5,228.9,98.21z M226.11,101.62c-0.84,1.27-0.78,3.07,0.15,4.28
		c-0.04,0.49-0.05,0.99-0.04,1.49c-0.81,0.7-0.86,2.17,0.04,2.81c0.28,0.21,0.65,0.13,0.93-0.03c0.57,0.61,1.33,1.19,2.22,1.12
		c1.08-0.05,1.96-0.89,2.42-1.82c0.73-1.45,0.77-3.22,0.18-4.73c-0.42-1.07-1.3-2.07-2.49-2.23c-0.24-0.75-0.72-1.5-1.5-1.74
		C227.28,100.54,226.5,101,226.11,101.62z"/>
	<path class="st12" d="M202.7,101.46c0.61,0.23,1.26,0.45,1.72,0.94c1.01,1.03,1.46,2.51,1.43,3.93c0.01,1.37-0.43,2.79-1.4,3.79
		c-0.6,0.64-1.51,1-2.39,0.84c-0.75-0.13-1.37-0.62-1.84-1.19c0.8-0.72,0.82-2.15,0.02-2.87c-0.3-0.29-0.75-0.25-1.11-0.08
		c0-0.53,0.02-1.06,0.09-1.58c0.37,0.38,0.87,0.71,1.43,0.69c0.72,0,1.33-0.51,1.69-1.1C202.96,103.83,203.04,102.56,202.7,101.46z"
		/>
	<path class="st12" d="M229.53,102.52c1.2,0.15,2.07,1.16,2.49,2.23c0.59,1.51,0.54,3.28-0.18,4.73c-0.46,0.93-1.34,1.77-2.42,1.82
		c-0.89,0.07-1.64-0.51-2.22-1.12c0.74-0.69,0.79-2.04,0.01-2.71c-0.28-0.26-0.67-0.2-0.98-0.07c-0.01-0.5,0-0.99,0.04-1.49
		c0.5,0.61,1.43,0.93,2.14,0.46C229.64,105.57,229.89,103.86,229.53,102.52z"/>
	<path class="st12" d="M291.7,228.76c2.45-1,5.32-0.87,7.7,0.28c2.17,1.07,4.01,2.78,5.3,4.82c2.23,3.66,2.61,8.1,2.39,12.29
		c-0.17,6.51-0.35,13.01-0.53,19.52c-0.17,4.94,0.05,10.04-1.67,14.76c-0.73,2.04-1.88,3.95-3.51,5.39
		c-2.07,1.95-4.81,3.46-7.73,3.26c-2.99-0.02-5.71-1.68-7.74-3.77c-1.8-1.78-3.12-4.02-3.81-6.45c-1-3.24-0.89-6.66-0.75-10
		c0.73-1.02,1.5-2.01,2.19-3.06c0.03,3.09-0.42,6.21,0.15,9.27c0.4,2.5,1.4,4.96,3.1,6.86c1.49,1.76,3.46,3.28,5.8,3.64
		c0.96,0.1,1.95,0.13,2.89-0.11c1.84-0.46,3.4-1.63,4.7-2.98c1.98-2.01,2.88-4.8,3.38-7.51c0.49-2.48,0.38-5.02,0.49-7.53
		c0.2-7.22,0.4-14.43,0.59-21.65c-0.01-3.56-0.78-7.36-3.2-10.1c-1.59-1.81-3.83-3.35-6.34-3.21c-1.39-0.17-2.74,0.29-3.96,0.92
		C291.3,231.85,291.49,230.31,291.7,228.76z"/>
	<path class="st12" d="M128.93,233.49c1.8-2.6,4.5-4.75,7.68-5.29c0.82-0.07,1.65-0.1,2.48-0.09c1.35,0.16,2.66,0.59,3.84,1.27
		c0.21,1.63,0.4,3.26,0.6,4.89c-1.52-1.16-3.39-2.04-5.35-1.79c-2.63-0.09-4.91,1.63-6.51,3.57c-2.15,2.67-2.84,6.2-2.89,9.55
		c0.23,7.63,0.5,15.26,0.73,22.89c0.07,1.83,0.04,3.68,0.34,5.5c0.4,2.7,1.13,5.46,2.82,7.66c1.36,1.68,3.13,3.1,5.2,3.78
		c1.77,0.41,3.7,0.27,5.33-0.57c2.04-1.04,3.67-2.78,4.87-4.7c1.21-2.02,1.8-4.35,2.01-6.68c0.15-1.41,0.01-2.84-0.01-4.25
		c-0.05-1.75-0.13-3.49-0.15-5.24c0.72,1.2,1.47,2.39,2.27,3.55c-0.08,2.1,0.2,4.2,0.08,6.3c-0.13,2.41-0.56,4.84-1.55,7.05
		c-1.23,2.75-3.34,5.1-5.89,6.71c-2.7,1.71-6.27,2.04-9.16,0.63c-2.13-1.04-4.03-2.62-5.38-4.57c-0.61-0.9-1.11-1.87-1.5-2.89
		c-0.53-1.39-0.89-2.83-1.16-4.28c-0.31-1.81-0.49-3.65-0.52-5.48c-0.29-9.11-0.59-18.22-0.88-27.33
		C126.35,240.13,126.94,236.47,128.93,233.49z"/>
	<path class="st13" d="M172.38,143.46c1.76,0.71,3.25,1.95,5.02,2.63c0.94,0.39,1.86,0.82,2.79,1.25c-0.16,1.16,0.28,2.27,0.58,3.37
		c0.47,1.53,1.21,2.96,1.89,4.41c-1.76-0.25-3.5-0.64-5.26-0.95c-0.32-0.09-0.76-0.06-0.91-0.43
		C174.72,150.49,173.52,146.97,172.38,143.46z"/>
	<path class="st14" d="M177.06,155.15c8.71,2.09,17.67,2.94,26.6,3.41c2.56,0.18,5.13,0.1,7.69,0.17c-0.61,0-1.22,0.06-1.83,0.12
		c3.33,3.38,5.85,7.61,6.96,12.24c-3.16-0.34-6.52-0.2-9.37,1.34c-1.49,0.79-2.88,1.82-4.01,3.08c-0.95,1.07-1.54,2.38-2.11,3.67
		c-1.42-0.55-2.75-1.31-4.1-2c-2.95-1.52-5.11-4.1-7.52-6.31c-2.39-2.17-4.47-4.64-6.59-7.06c-1.1-1.16-2.18-2.36-3.05-3.71
		C178.67,158.54,177.92,156.81,177.06,155.15z"/>
	<path class="st15" d="M211.35,158.73c5.84,0.08,11.68-0.21,17.49-0.77c-0.46,2.34-1.01,4.72-0.77,7.12
		c0.08,1.48,0.55,2.91,1.27,4.2c-0.97,0.05-1.87,0.43-2.78,0.71c-1.21,0.38-2.37,0.92-3.47,1.55c-0.63,0.33-1.31,0.75-2.05,0.58
		c-1.52-0.32-3-0.86-4.56-1.04c-1.11-4.63-3.63-8.86-6.96-12.24C210.13,158.79,210.74,158.73,211.35,158.73z"/>
	<path class="st16" d="M229.34,169.28c0.83-0.06,1.67-0.16,2.51-0.1c1.16,0.13,2.21,0.68,3.23,1.2c1.39,0.72,2.53,1.81,3.64,2.9
		c-0.53,0.48-1.04,0.98-1.54,1.49c-1.21-1.45-2.68-2.75-4.47-3.41c-3.2-1.16-6.73,0.01-9.4,1.9c0.59,0.89,1.4,1.62,1.93,2.55
		c0.36,0.59,0.34,1.31,0.37,1.98c-1.41-1.22-2.62-2.74-4.34-3.54c-1.41-0.64-2.89-1.11-4.4-1.45c-3-0.64-6.26-0.54-9.04,0.85
		c-1.31,0.61-2.52,1.48-3.48,2.57c-0.94,1.05-1.34,2.43-1.85,3.72c-0.49-0.28-0.99-0.56-1.51-0.76c0.57-1.29,1.17-2.61,2.11-3.67
		c1.13-1.26,2.52-2.29,4.01-3.08c2.85-1.54,6.22-1.68,9.37-1.34c1.55,0.18,3.03,0.72,4.56,1.04c0.74,0.17,1.42-0.25,2.05-0.58
		c1.1-0.63,2.26-1.17,3.47-1.55C227.47,169.71,228.37,169.33,229.34,169.28z"/>
	<path class="st17" d="M223.31,173.26c2.66-1.89,6.2-3.06,9.4-1.9c1.79,0.66,3.26,1.97,4.47,3.41c-0.79,0.94-1.77,1.7-2.83,2.33
		c-3.18,1.99-6.86,2.91-10.46,3.81c-1.65,0.37-3.28,0.89-4.96,1.08c-5.51,0.64-11.37,0.47-16.42-2.06c0.5-1.29,0.9-2.67,1.85-3.72
		c0.97-1.08,2.17-1.95,3.48-2.57c2.78-1.39,6.04-1.49,9.04-0.85c1.51,0.34,2.99,0.81,4.4,1.45c1.73,0.8,2.93,2.32,4.34,3.54
		c-0.04-0.67-0.01-1.39-0.37-1.98C224.7,174.88,223.89,174.15,223.31,173.26z M232.12,172.22c-0.3,0.13-0.54,0.49-0.38,0.81
		c0.33,0.88,1.22,1.48,2.11,1.67c0.43,0.12,1.08-0.07,1.09-0.61c-0.04-0.6-0.49-1.08-0.95-1.4
		C233.46,172.33,232.78,172.03,232.12,172.22z"/>
	<path class="st18" d="M131.68,236.06c1.6-1.94,3.88-3.66,6.51-3.57c3.29,3.32,5.16,7.72,6.57,12.11c0.39,2.52,0.55,5.08,1.04,7.59
		c0.26,1.41,0.65,2.79,0.99,4.19c-0.03,2.33,0.08,4.66-0.07,6.99c-0.27,3.85-0.9,7.69-2.09,11.37c-1.14,3.49-2.79,6.9-5.3,9.61
		c-0.41,0.45-0.84,0.89-1.44,1.09c-2.08-0.68-3.84-2.09-5.2-3.78c-1.69-2.2-2.42-4.96-2.82-7.66c-0.29-1.82-0.26-3.66-0.34-5.5
		c-0.23-7.63-0.5-15.26-0.73-22.89C128.83,242.25,129.53,238.72,131.68,236.06z"/>
	<path class="st18" d="M295.08,232.48c2.51-0.13,4.75,1.4,6.34,3.21c2.42,2.74,3.2,6.54,3.2,10.1c-0.2,7.22-0.4,14.43-0.59,21.65
		c-0.12,2.51,0,5.05-0.49,7.53c-0.5,2.71-1.4,5.5-3.38,7.51c-1.3,1.34-2.86,2.52-4.7,2.98c-3.6-3.15-5.66-7.66-6.97-12.18
		c-1.27-4.5-1.86-9.19-1.8-13.86c1.14-2.96,1.93-6.04,2.39-9.18c0.47-3.52,0.79-7.07,1.32-10.58c0.66-1.02,1.1-2.16,1.74-3.2
		C292.97,235.03,294,233.73,295.08,232.48z"/>
	<path class="st19" d="M138.19,232.49c1.96-0.24,3.82,0.64,5.35,1.79c0.42,3.44,0.87,6.87,1.22,10.32
		C143.35,240.21,141.47,235.81,138.19,232.49z"/>
	<path class="st19" d="M291.12,233.4c1.22-0.63,2.57-1.09,3.96-0.92c-1.08,1.25-2.11,2.55-2.94,3.98c-0.63,1.04-1.08,2.18-1.74,3.2
		C290.56,237.57,290.89,235.49,291.12,233.4z"/>
	<path class="st19" d="M146.78,256.37c0.52,1.52,1.03,3.05,1.68,4.53c0.45,1.05,1,2.04,1.48,3.07c0.02,1.75,0.1,3.49,0.15,5.24
		c0.02,1.42,0.16,2.84,0.01,4.25c-0.21,2.33-0.8,4.66-2.01,6.68c-1.21,1.93-2.83,3.66-4.87,4.7c-1.63,0.84-3.56,0.98-5.33,0.57
		c0.59-0.19,1.03-0.64,1.44-1.09c2.52-2.71,4.16-6.12,5.3-9.61c1.19-3.68,1.82-7.52,2.09-11.37
		C146.86,261.03,146.75,258.7,146.78,256.37z"/>
	<path class="st19" d="M283.51,265.79c1.24-2.03,2.33-4.15,3.17-6.37c-0.06,4.67,0.53,9.36,1.8,13.86
		c1.31,4.52,3.36,9.03,6.97,12.18c-0.95,0.24-1.93,0.21-2.89,0.11c-2.33-0.36-4.31-1.88-5.8-3.64c-1.7-1.91-2.7-4.36-3.1-6.86
		C283.09,272,283.54,268.88,283.51,265.79z"/>
</g>
</svg>
